<?xml version="1.0" standalone="no"?><svg xmlns="http://www.w3.org/2000/svg" viewBox="0 0 1440 320"><path fill="#728a45" fill-opacity="1" d="M0,288L34.3,266.7C68.6,245,137,203,206,176C274.3,149,343,139,411,144C480,149,549,171,617,170.7C685.7,171,754,149,823,128C891.4,107,960,85,1029,69.3C1097.1,53,1166,43,1234,69.3C1302.9,96,1371,160,1406,192L1440,224L1440,0L1405.7,0C1371.4,0,1303,0,1234,0C1165.7,0,1097,0,1029,0C960,0,891,0,823,0C754.3,0,686,0,617,0C548.6,0,480,0,411,0C342.9,0,274,0,206,0C137.1,0,69,0,34,0L0,0Z"></path></svg>